<svg version="1.1" xmlns="http://www.w3.org/2000/svg" xmlns:xlink="http://www.w3.org/1999/xlink" x="0px" y="0px" viewBox="0 0 1000 1000" enable-background="new 0 0 1000 1000" xml:space="preserve">
<g><path d="M500,10C229.4,10,10,229.4,10,500c0,270.6,219.4,490,490,490c270.7,0,490-219.4,490-490C990,229.4,770.7,10,500,10L500,10z M555.9,695.9c-19.4,7.7-27.9,5.2-39.5,9.3c-11.6,4-25,6-40.3,6c-23.6,0-41.9-5.8-54.9-17.2c-13.1-11.5-27.2-26.1-27.2-43.8c0-0.8-1.9-34.2,9.1-57l33.7-78.9c2.2-8.2,4-16,5.5-23.4c1.5-7.4,2.2-8.2,2.2-14.3c0-11-7-18.7-11.5-23c-4.5-4.3-23.8-6.5-36.6-6.5c-6.3,0-12.7,1-19.3,2.9c-6.6,2-13.7,3.8-18.4,5.6l1.8-32.4c15.9-6.5,47.9-15.6,62.5-20.2c14.5-4.6,28.3-6.9,41.3-6.9c23.4,0,47.2,5.7,59.9,16.9c12.7,11.3,28.4,29.5,28.4,47.6c0,3.7-0.4,10.3-1.3,19.7c-0.9,9.4-2.5,18.1-4.9,25.9L506.8,585c-2,6.9-3.7,14.7-5.3,23.5c-1.6,8.8-2.4,27.2-2.4,31.7c0,11.4,2.5,19.2,7.6,23.3c5.1,4.1,10.4,10.9,22.9,10.9c17,0,16,2.9,32.6-5L555.9,695.9L555.9,695.9z M555.4,342.2c-10.6,9.8-23.3,17-38.2,17c-14.9,0-27.7-7.1-38.3-17c-10.7-9.8-16-22.8-16-36.8c0-14,5.3-27,16-37c10.7-9.9,23.4-16,38.3-16c14.9,0,27.6,5,38.2,14.9c10.6,9.9,15.8,24.1,15.8,38C571.3,319.4,566,332.4,555.4,342.2L555.4,342.2z"/></g>
</svg>