<svg width="538" height="456" viewBox="0 0 538 456" fill="none" xmlns="http://www.w3.org/2000/svg">
<g id="Kotak">
<g id="Body">
<path id="Vector" d="M269.379 0.115814L105.28 95.7821L269.379 191.448L433.536 95.7821L269.379 0.115814Z" fill="black"/>
<path id="Vector_2" d="M96.1111 108.737V300.066L261.876 395.757V204.429L96.1111 108.737Z" fill="black"/>
<path id="Vector_3" d="M442.695 109.117L276.93 204.808V396.137L442.695 300.446V109.117Z" fill="black"/>
</g>
<g id="back-right">
<path id="Vector_4" d="M457.399 296.154V209.092L533.168 252.623L457.399 296.154Z" fill="black"/>
</g>
<g id="back-left">
<path id="Vector_5" d="M81.0563 295.783V208.722L5.28702 252.253L81.0563 295.783Z" fill="black"/>
</g>
<g id="front-right">
<path id="Vector_6" d="M453.832 310.242L284.579 407.575L369.801 456.112L538.489 359.09L538.077 358.832L538.644 358.523L453.832 310.242Z" fill="black"/>
</g>
<g id="front-left">
<path id="Vector_7" d="M85.3439 311.609L0.632599 360.015L1.1987 360.324L0.786531 360.582L169.28 457.859L254.403 409.195L85.3439 311.609Z" fill="black"/>
</g>
</g>
</svg>
