<svg width="24.157" height="20.487" version="1.1" viewBox="0 0 6.3915 5.4205" xmlns="http://www.w3.org/2000/svg">
 <path d="m-4.8495 2.0241a3.1232 3.1232 0 0 0-3.1094 3.1228 3.1232 3.1232 0 0 0 3.1228 3.1233 3.1232 3.1232 0 0 0 3.1233-3.1233 3.1232 3.1232 0 0 0-3.1233-3.1228 3.1232 3.1232 0 0 0-0.01344 0zm0.01344 0.77876 1.7017 0.98237-1.7017 0.98237-1.7012-0.98237zm-1.7782 1.1157 1.3648 0.78807 0.18242 0.10542 0.154 0.08888v1.9647l-1.7012-0.98236v-1.1576zm3.5569 0.0036v1.9647l-1.7012 0.98237v-1.9647l0.154-0.08888-0.0031-0.0016 0.84801-0.48989 0.0031 0.0015zm-3.7114 0.89297v0.89038l-0.77101-0.44545-0.00827 0.0052v-0.0098l0.00827 0.0046zm3.8623 0.0016 0.77411 0.447 0.0083-0.0046v0.0098l-0.0083-0.0052-0.77411 0.447zm-3.7796 1.203 1.696 0.97927 0.00827-0.0046v0.0098l-0.00827-0.0052-0.84801 0.48989-1.6965-0.97927zm3.7026 0.0026 0.84801 0.48989-1.696 0.97927-0.84801-0.48989-0.0083 0.0052v-0.0098l0.0083 0.0046z" fill="#8bd3e1" stroke-width="2.0371"/>
 <g fill-opacity=".52157" stroke-width="0">
  <path d="m13.735 1.5168-1.6844 0.97247-1.6844-0.97247v-1.9449l1.6844-0.97247 1.6844 0.97247z" fill="#00f"/>
  <path d="m12.051-1.4106-1.6841 0.98237 1.6841 0.98237 1.6847-0.98237z" fill="#f00"/>
  <path d="m8.8438-2.1781v1.9446l1.6753-0.9772z" fill="#0f0"/>
 </g>
 <g transform="matrix(1.1576 0 0 1.1576 7.3367 -2.1102)" stroke-width="0">
  <path d="m-3.5733 1.8241-1.6841 0.98237 1.6841 0.98237 1.6847-0.98237z"/>
  <path d="m-5.3515 2.9395v1.9647l1.7012 0.98263v-1.9647z"/>
  <path d="m-1.7946 2.9434-1.7012 0.98263v1.9647l1.7012-0.98263z"/>
  <path transform="matrix(.5882 0 0 .58566 -4.6454 2.3003)" d="m5.1032 4.3775v-1.5265l1.322 0.76325z"/>
  <path transform="matrix(-.5882 0 0 .58566 -2.5043 2.2965)" d="m5.1032 4.3775v-1.5265l1.322 0.76325z"/>
  <path d="m-1.6803 5.0087-1.737 0.99948 0.87461 0.49842 1.7312-0.9963-0.004233-0.00265 0.00582-0.00317z"/>
  <path d="m-5.462 5.0022-0.86937 0.49706 0.00581 0.00318-0.00423 0.00265 1.7292 0.9989 0.8736-0.49971z"/>
 </g>
</svg>
