<svg version="1.1" viewBox="0 0 24 24" xmlns="http://www.w3.org/2000/svg">
	<g>
		<path d="m15.864 14.321h-0.81304l-0.28816-0.27787c1.0086-1.1732 1.6158-2.6964 1.6158-4.3533 0-3.6947-2.9949-6.6895-6.6895-6.6895-3.6947 0-6.6895 2.9949-6.6895 6.6895 0 3.6947 2.9949 6.6895 6.6895 6.6895 1.6569 0 3.1801-0.6072 4.3533-1.6158l0.27787 0.28816v0.81304l5.1458 5.1355 1.5334-1.5334zm-6.175 0c-2.5626 0-4.6312-2.0686-4.6312-4.6312 0-2.5626 2.0686-4.6312 4.6312-4.6312 2.5626 0 4.6312 2.0686 4.6312 4.6312 0 2.5626-2.0686 4.6312-4.6312 4.6312z" stroke-width="1.0292" />
	</g>
</svg>
