<svg version="1.1" xmlns="http://www.w3.org/2000/svg" xmlns:xlink="http://www.w3.org/1999/xlink" x="0px" y="0px" viewBox="0 0 1000 1000" enable-background="new 0 0 1000 1000" xml:space="preserve">
<g><g><path d="M688.5,424.6c0-72.6-25.8-134.8-77.4-186.4s-113.8-77.4-186.4-77.4s-134.8,25.8-186.4,77.4S160.8,352,160.8,424.6c0,72.6,25.8,134.8,77.4,186.4c51.6,51.6,113.8,77.4,186.4,77.4S559.4,662.6,611,611C662.6,559.4,688.5,497.3,688.5,424.6L688.5,424.6z M990,914.6c0,20.4-7.5,38.1-22.4,53c-14.9,14.9-32.6,22.4-53,22.4c-21.2,0-38.9-7.5-53-22.4l-202-201.4c-70.3,48.7-148.6,73-235,73c-56.1,0-109.8-10.9-161.1-32.7s-95.4-51.2-132.5-88.3c-37.1-37.1-66.5-81.3-88.3-132.5C20.9,534.5,10,480.8,10,424.6s10.9-109.8,32.7-161.1S93.9,168.1,131,131c37.1-37.1,81.3-66.6,132.5-88.3S368.5,10,424.6,10s109.8,10.9,161.1,32.7c51.2,21.8,95.4,51.2,132.5,88.3c37.1,37.1,66.6,81.3,88.3,132.5c21.8,51.2,32.7,104.9,32.7,161.1c0,86.4-24.3,164.7-73,235l202,202C982.7,876.1,990,893.8,990,914.6L990,914.6z"/></g></g>
</svg>